<svg xmlns="http://www.w3.org/2000/svg" xmlns:xlink="http://www.w3.org/1999/xlink" width="896.26" height="886.06" viewBox="0 0 896.26 886.06"><defs><linearGradient id="a" x1="654.31" x2="654.31" y1="787.12" y2="483.17" gradientUnits="userSpaceOnUse"><stop offset="0" stop-color="gray" stop-opacity=".25"/><stop offset=".54" stop-color="gray" stop-opacity=".12"/><stop offset="1" stop-color="gray" stop-opacity=".1"/></linearGradient><linearGradient id="c" x1="310.24" x2="310.24" y1="813.28" y2="53.35" xlink:href="#a"/><clipPath id="d" transform="translate(-103.74 -16.68)"><path fill="#479ccf" d="M256.61 133.55h312.75v588.49H256.61z"/></clipPath><linearGradient id="b" x1="413.1" x2="413.1" y1="523.43" y2="308.51" gradientUnits="userSpaceOnUse"><stop offset="0" stop-opacity=".12"/><stop offset=".55" stop-opacity=".09"/><stop offset="1" stop-opacity=".02"/></linearGradient><linearGradient id="e" x1="309.36" x2="309.36" y1="376.83" y2="335.13" xlink:href="#b"/></defs><path fill="url(#a)" d="M412.36 483.17h483.89v303.95H412.36z"/><path fill="#fff" d="M412.36 490.73h477.81V774.4H412.36z"/><path fill="#479ccf" d="M808.72 512.34h60.79v44.98h-60.79zM586.23 630.28h233.43v14.59H586.23zm0 36.47h170.21v9.73H586.23z" opacity=".6"/><rect width="427.96" height="759.94" x="96.26" y="53.35" fill="url(#c)" rx="10" ry="10"/><rect width="403.97" height="723.15" x="107.25" y="65.74" fill="#fff" rx="10" ry="10"/><path fill="#479ccf" d="M152.86 116.86h312.75v588.49H152.86z"/><g fill="#2196f3" stroke="#fff" stroke-miterlimit="10" stroke-width="7" clip-path="url(#d)"><path d="M28.17 477.63l624.65-301.52m-457.14-174l218.67 289.11M15.2 105.86l226.12 268.88m-64.69 31.23L530.7 883.98M2.23 813.73l295.23-244.64m277.55-135.77L353.05 644.14"/></g><circle cx="309.24" cy="747.75" r="24.94" fill="#dbdbdb"/><circle cx="261.86" cy="89.43" r="4.99" fill="#dbdbdb"/><rect width="77.3" height="7.48" x="284.3" y="85.69" fill="#dbdbdb" rx="1.5" ry="1.5"/><path fill="url(#b)" d="M482.07 377.47c0 38.09-69 146-69 146s-69-107.86-69-146a69 69 0 1 1 137.93 0z" transform="translate(-103.74 -16.68)"/><circle cx="309.36" cy="355.98" r="20.85" fill="url(#e)"/><path fill="#ff5252" d="M363.11 369.32c0 29.68-53.75 113.74-53.75 113.74s-53.75-84.09-53.75-113.74a53.75 53.75 0 1 1 107.49 0z"/><circle cx="309.36" cy="365.54" r="16.25" fill="#fff"/></svg>