<?xml version="1.0" standalone="no"?>
<!DOCTYPE svg PUBLIC "-//W3C//DTD SVG 20010904//EN"
 "http://www.w3.org/TR/2001/REC-SVG-20010904/DTD/svg10.dtd">
<svg version="1.0" xmlns="http://www.w3.org/2000/svg"
 width="100.000000pt" height="100.000000pt" viewBox="0 0 100.000000 100.000000"
 preserveAspectRatio="xMidYMid meet">
<metadata>
Created by potrace 1.11, written by Peter Selinger 2001-2013
</metadata>
<g transform="translate(0.000000,100.000000) scale(0.100000,-0.100000)"
fill="#000000" stroke="none">
<path d="M529 885 c-179 -109 -282 -273 -281 -450 0 -95 4 -125 13 -119 11 6
22 -34 13 -47 -4 -7 -3 -9 3 -6 6 4 19 -6 28 -21 10 -15 29 -37 44 -49 14 -12
22 -22 16 -23 -5 0 -25 15 -44 33 l-34 32 21 -31 c44 -64 131 -132 179 -140
39 -6 41 -5 101 62 33 37 76 97 94 133 32 62 33 70 33 175 -1 127 -14 171 -90
296 -24 41 -45 83 -45 93 0 9 -6 17 -12 17 -8 0 -9 3 -3 8 9 6 35 56 35 67 0
10 -16 3 -71 -30z m45 -97 c7 -18 23 -43 34 -54 11 -12 35 -52 53 -90 29 -60
34 -81 37 -164 4 -109 -6 -163 -32 -168 -10 -2 -16 2 -14 10 1 7 -8 30 -20 51
l-24 37 20 33 c13 21 17 39 12 52 -7 17 -8 16 -11 -10 -5 -37 -30 -44 -45 -12
-13 28 -8 48 11 41 7 -3 16 -1 20 5 3 6 -1 14 -9 17 -12 5 -14 18 -9 69 5 54
2 73 -21 129 -14 37 -26 71 -26 76 0 19 10 10 24 -22z m-104 -21 c0 -2 -11
-35 -24 -75 -53 -156 -60 -372 -16 -496 12 -32 19 -60 17 -63 -9 -9 -78 27
-72 37 3 6 -6 36 -22 68 -26 53 -28 66 -27 172 0 112 3 144 15 165 4 6 9 22
13 37 4 17 18 34 36 43 34 18 39 25 11 18 -11 -3 -21 2 -24 11 -5 12 0 16 19
16 15 0 23 4 19 10 -4 6 4 22 17 35 20 22 38 32 38 22z m51 -390 c-13 -13 -26
-3 -16 12 3 6 11 8 17 5 6 -4 6 -10 -1 -17z m84 -7 c13 -39 -21 -100 -56 -100
-39 0 -44 60 -8 99 25 27 56 27 64 1z"/>
</g>
</svg>
