<svg xmlns="http://www.w3.org/2000/svg" xmlns:xlink="http://www.w3.org/1999/xlink" viewBox="0 0 1200 600" width="1200" height="600"><defs><clipPath id="b"><path d="M0 0v150h700v150H600zm0 300v100h300V0h300z"/></clipPath><path id="a" fill="#ffce00" d="M0-50.08l29.437 90.596-77.067-55.992h95.26l-77.067 55.993z"/><use id="c" transform="rotate(36)" xlink:href="#a"/></defs><path fill="#00247d" d="M0 0h1200v600H0z"/><path stroke="#fff" stroke-width="60" d="M0 0l600 300M0 300L600 0"/><path stroke="#cf142b" stroke-width="40" d="M0 0l600 300M0 300L600 0" clip-path="url(#b)"/><path stroke="#fff" stroke-width="100" d="M300 0v400M0 150h700"/><path stroke="#cf142b" stroke-width="60" d="M300 0v400M0 150h700"/><path fill="#5b97b1" d="M0 300h600V0h600v600H0z"/><use x="645.34" y="540.99" xlink:href="#a"/><use x="788.03" y="504.52" xlink:href="#c"/><use x="788.03" y="382.53" xlink:href="#c"/><use x="914.03" y="473.68" xlink:href="#c"/><use x="914.03" y="208.27" xlink:href="#c"/><use x="996.44" y="390.05" xlink:href="#a"/><use x="1019.93" y="172.08" xlink:href="#c"/><use x="1102.84" y="321.55" xlink:href="#a"/><use x="1102.84" y="87.49" xlink:href="#a"/></svg>